<svg width="280" height="172" viewBox="0 0 280 172" fill="none" xmlns="http://www.w3.org/2000/svg">
<mask id="path-1-inside-1_16_698" fill="white">
<path d="M41.2344 0.0546875H33.0078V16H25.8477V22.5508H33.0078V47.1797H41.2344V0.0546875ZM0.101562 32.25L4.92578 38.6992C10.2832 36.1348 13.6855 31.3867 15.6152 25.5723C17.5449 30.9805 20.8965 35.3223 26.2031 37.7344L30.9766 31.3359C22.4961 27.7559 19.7793 19.3008 19.7031 10.8711H28.8438V4.42188H2.23438V10.8711H11.375C11.2734 19.6816 8.58203 28.4414 0.101562 32.25Z"/>
<path d="M84.2461 11.9883H59.1602V1.73047H51.0352V18.2852H84.2461V11.9883ZM46.0078 28.7461H88.8672V22.4492H46.0078V28.7461ZM50.4766 46.1133H84.5508V39.6133H58.7031V31.9961H50.4766V46.1133Z"/>
<path d="M142.238 0.0546875H134.113V5.38672H126.521C126.674 4.16797 126.75 2.89844 126.75 1.57812H105.523V8.02734H117.711C116.848 12.4961 112.836 16.1777 102.73 17.9805L105.422 24.5312C115.73 22.4492 122.104 18.2598 124.973 11.4805H134.113V14.5781H124.566V20.6719H134.113V23.5156H142.238V0.0546875ZM110.551 31.2344H134.062V32.707H110.602V46.5703H142.898V40.1719H118.727V38.6992H142.238V24.8867H110.551V31.2344Z"/>
<path d="M185.402 1.98438H152.344V8.43359H177.252C177.201 11.2012 177.049 14.1719 176.363 17.8281H147.215V24.2773H164.48V29.7617H151.43V36.0586H177.125V47.0273H185.25V29.7617H172.707V24.2773H190.125V17.8281H184.59C185.428 13.1309 185.428 9.29688 185.402 5.89453V1.98438Z"/>
<path d="M233.137 0.0546875H225.367V47.0273H233.137V0.0546875ZM192.461 20.4688C192.436 31.3867 196.498 37.9883 202.77 37.9883C208.533 37.9883 212.494 32.5039 213.18 23.2617H215.465V44.9961H223.133V0.613281H215.465V16.8633H213.104C212.266 8.17969 208.355 3.05078 202.77 3.05078C196.498 3.05078 192.436 9.62695 192.461 20.4688ZM199.926 20.4688C199.875 13.5625 200.84 10.7441 202.77 10.7695C204.75 10.7441 205.791 13.5625 205.816 20.4688C205.791 27.4512 204.75 30.168 202.77 30.168C200.84 30.168 199.875 27.4512 199.926 20.4688Z"/>
<path d="M275.336 11.9883H250.25V1.73047H242.125V18.2852H275.336V11.9883ZM237.098 28.7461H279.957V22.4492H237.098V28.7461ZM241.566 46.1133H275.641V39.6133H249.793V31.9961H241.566V46.1133Z"/>
<path d="M40.7266 62.0547H32.5V109.18H40.7266V62.0547ZM2.18359 82.1133C2.1582 92.6504 7.5918 99.1758 14.9297 99.1758C22.0898 99.1758 27.4727 92.6504 27.4727 82.1133C27.4727 71.7285 22.0898 65.1777 14.9297 65.2031C7.5918 65.1777 2.1582 71.7285 2.18359 82.1133ZM10.0547 82.1133C10.0293 75.6133 11.9336 72.541 14.9297 72.5664C17.748 72.541 19.627 75.6133 19.6523 82.1133C19.627 88.7148 17.748 91.7363 14.9297 91.7109C11.9336 91.7363 10.0293 88.7148 10.0547 82.1133Z"/>
<path d="M68.1484 68.6562H61.1406V63.3242H53.168V68.6562H45.957V75.0547H68.1484V68.6562ZM46.668 87.9023C46.6934 94.6562 51.1367 99.4043 57.1797 99.4297C63.2734 99.4043 67.5898 94.6562 67.5898 87.9023C67.5898 81.25 63.2734 76.502 57.1797 76.4766C51.1367 76.502 46.6934 81.25 46.668 87.9023ZM53.8281 87.9023C53.8281 84.7793 55.123 83.1797 57.1797 83.2305C59.1602 83.1797 60.4551 84.7793 60.4805 87.9023C60.4551 91.127 59.1602 92.5742 57.1797 92.5742C55.123 92.5742 53.8281 91.127 53.8281 87.9023ZM69.418 107.199H77.0352V87.1914H79.2695V109.027H86.9883V62.0547H79.2695V80.793H77.0352V62.8672H69.418V107.199Z"/>
<path d="M113.09 68.6562H106.082V63.3242H98.1094V68.6562H90.8984V75.0547H113.09V68.6562ZM91.6094 87.9023C91.6348 94.6562 96.0781 99.4043 102.121 99.4297C108.215 99.4043 112.531 94.6562 112.531 87.9023C112.531 81.25 108.215 76.502 102.121 76.4766C96.0781 76.502 91.6348 81.25 91.6094 87.9023ZM98.7695 87.9023C98.7695 84.7793 100.064 83.1797 102.121 83.2305C104.102 83.1797 105.396 84.7793 105.422 87.9023C105.396 91.127 104.102 92.5742 102.121 92.5742C100.064 92.5742 98.7695 91.127 98.7695 87.9023ZM114.359 107.199H121.977V87.1914H124.211V109.027H131.93V62.0547H124.211V80.793H121.977V62.8672H114.359V107.199Z"/>
<path d="M148.586 65.2031C141.223 65.1777 135.789 71.7285 135.84 82.1133C135.789 92.6504 141.223 99.1758 148.586 99.1758C155.873 99.1758 161.256 92.6504 161.281 82.1133C161.256 71.7285 155.873 65.1777 148.586 65.2031ZM143.762 82.1133C143.711 75.6133 145.666 72.541 148.586 72.5664C151.582 72.541 153.461 75.6133 153.512 82.1133C153.461 88.7148 151.582 91.7363 148.586 91.7109C145.666 91.7363 143.711 88.7148 143.762 82.1133ZM165.191 109.027H173.367V92.7266H179.359V86.1758H173.367V79.168H179.359V72.4648H173.367V62.0547H165.191V109.027Z"/>
<path d="M28.9453 142.387H12.1367V134.465H28.7422V128.066H4.01172V148.887H12.4414V155.844C8.53125 155.895 4.72266 155.895 1.21875 155.844L2.13281 162.445C10.8418 162.42 21.0742 162.42 31.2305 160.82L30.6211 154.93C27.3965 155.234 24.0195 155.463 20.6172 155.615V148.887H28.9453V142.387ZM33.0078 171.18H41.082V124.055H33.0078V171.18Z"/>
<path d="M69.4688 128.016H48.1406V160.008H52.1016C60.5312 160.059 66.168 159.855 72.3125 158.637L71.5 152.137C66.6758 152.975 62.2324 153.305 56.3672 153.381V134.566H69.4688V128.016ZM67.4883 146.398H78V171.18H86.125V124.055H78V139.797H67.4883V146.398Z"/>
<path d="M128.426 124.055H120.352V171.18H128.426V147.922H134.773V141.219H128.426V124.055ZM92.8789 134.262H106.691V140.508H92.9297V160.516H96.9922C104.736 160.516 111.338 160.236 118.371 158.941L117.66 152.543C112.049 153.432 106.818 153.736 101.004 153.787V146.805H114.816V127.762H92.8789V134.262Z"/>
<path d="M174.129 126.645H140.512V133.043H165.979C165.953 136.801 165.775 141.066 164.785 146.5H135.891V153H152.902V171.078H161.129V153H178.75V146.5H172.961C174.104 140.025 174.104 135.277 174.129 130.91V126.645Z"/>
<path d="M223.742 159.297H214.906V148.404C218.232 146.17 220.238 142.895 220.238 138.883C220.238 131.113 212.494 125.959 202.262 125.984C191.928 125.959 184.311 131.113 184.336 138.883C184.311 142.945 186.342 146.246 189.719 148.48V159.297H180.832V165.898H223.742V159.297ZM192.41 138.883C192.385 134.541 196.143 132.307 202.262 132.332C208.254 132.307 212.113 134.541 212.164 138.883C212.113 143.123 208.254 145.51 202.262 145.535C196.143 145.51 192.385 143.123 192.41 138.883ZM197.793 159.297V151.426C199.215 151.654 200.713 151.781 202.262 151.781C203.811 151.781 205.309 151.654 206.73 151.426V159.297H197.793Z"/>
</mask>
<path d="M41.2344 0.0546875H33.0078V16H25.8477V22.5508H33.0078V47.1797H41.2344V0.0546875ZM0.101562 32.25L4.92578 38.6992C10.2832 36.1348 13.6855 31.3867 15.6152 25.5723C17.5449 30.9805 20.8965 35.3223 26.2031 37.7344L30.9766 31.3359C22.4961 27.7559 19.7793 19.3008 19.7031 10.8711H28.8438V4.42188H2.23438V10.8711H11.375C11.2734 19.6816 8.58203 28.4414 0.101562 32.25Z" stroke="#315E7A" stroke-width="2" mask="url(#path-1-inside-1_16_698)"/>
<path d="M84.2461 11.9883H59.1602V1.73047H51.0352V18.2852H84.2461V11.9883ZM46.0078 28.7461H88.8672V22.4492H46.0078V28.7461ZM50.4766 46.1133H84.5508V39.6133H58.7031V31.9961H50.4766V46.1133Z" stroke="#315E7A" stroke-width="2" mask="url(#path-1-inside-1_16_698)"/>
<path d="M142.238 0.0546875H134.113V5.38672H126.521C126.674 4.16797 126.75 2.89844 126.75 1.57812H105.523V8.02734H117.711C116.848 12.4961 112.836 16.1777 102.73 17.9805L105.422 24.5312C115.73 22.4492 122.104 18.2598 124.973 11.4805H134.113V14.5781H124.566V20.6719H134.113V23.5156H142.238V0.0546875ZM110.551 31.2344H134.062V32.707H110.602V46.5703H142.898V40.1719H118.727V38.6992H142.238V24.8867H110.551V31.2344Z" stroke="#315E7A" stroke-width="2" mask="url(#path-1-inside-1_16_698)"/>
<path d="M185.402 1.98438H152.344V8.43359H177.252C177.201 11.2012 177.049 14.1719 176.363 17.8281H147.215V24.2773H164.48V29.7617H151.43V36.0586H177.125V47.0273H185.25V29.7617H172.707V24.2773H190.125V17.8281H184.59C185.428 13.1309 185.428 9.29688 185.402 5.89453V1.98438Z" stroke="#315E7A" stroke-width="2" mask="url(#path-1-inside-1_16_698)"/>
<path d="M233.137 0.0546875H225.367V47.0273H233.137V0.0546875ZM192.461 20.4688C192.436 31.3867 196.498 37.9883 202.77 37.9883C208.533 37.9883 212.494 32.5039 213.18 23.2617H215.465V44.9961H223.133V0.613281H215.465V16.8633H213.104C212.266 8.17969 208.355 3.05078 202.77 3.05078C196.498 3.05078 192.436 9.62695 192.461 20.4688ZM199.926 20.4688C199.875 13.5625 200.84 10.7441 202.77 10.7695C204.75 10.7441 205.791 13.5625 205.816 20.4688C205.791 27.4512 204.75 30.168 202.77 30.168C200.84 30.168 199.875 27.4512 199.926 20.4688Z" stroke="#315E7A" stroke-width="2" mask="url(#path-1-inside-1_16_698)"/>
<path d="M275.336 11.9883H250.25V1.73047H242.125V18.2852H275.336V11.9883ZM237.098 28.7461H279.957V22.4492H237.098V28.7461ZM241.566 46.1133H275.641V39.6133H249.793V31.9961H241.566V46.1133Z" stroke="#315E7A" stroke-width="2" mask="url(#path-1-inside-1_16_698)"/>
<path d="M40.7266 62.0547H32.5V109.18H40.7266V62.0547ZM2.18359 82.1133C2.1582 92.6504 7.5918 99.1758 14.9297 99.1758C22.0898 99.1758 27.4727 92.6504 27.4727 82.1133C27.4727 71.7285 22.0898 65.1777 14.9297 65.2031C7.5918 65.1777 2.1582 71.7285 2.18359 82.1133ZM10.0547 82.1133C10.0293 75.6133 11.9336 72.541 14.9297 72.5664C17.748 72.541 19.627 75.6133 19.6523 82.1133C19.627 88.7148 17.748 91.7363 14.9297 91.7109C11.9336 91.7363 10.0293 88.7148 10.0547 82.1133Z" stroke="#315E7A" stroke-width="2" mask="url(#path-1-inside-1_16_698)"/>
<path d="M68.1484 68.6562H61.1406V63.3242H53.168V68.6562H45.957V75.0547H68.1484V68.6562ZM46.668 87.9023C46.6934 94.6562 51.1367 99.4043 57.1797 99.4297C63.2734 99.4043 67.5898 94.6562 67.5898 87.9023C67.5898 81.25 63.2734 76.502 57.1797 76.4766C51.1367 76.502 46.6934 81.25 46.668 87.9023ZM53.8281 87.9023C53.8281 84.7793 55.123 83.1797 57.1797 83.2305C59.1602 83.1797 60.4551 84.7793 60.4805 87.9023C60.4551 91.127 59.1602 92.5742 57.1797 92.5742C55.123 92.5742 53.8281 91.127 53.8281 87.9023ZM69.418 107.199H77.0352V87.1914H79.2695V109.027H86.9883V62.0547H79.2695V80.793H77.0352V62.8672H69.418V107.199Z" stroke="#315E7A" stroke-width="2" mask="url(#path-1-inside-1_16_698)"/>
<path d="M113.09 68.6562H106.082V63.3242H98.1094V68.6562H90.8984V75.0547H113.09V68.6562ZM91.6094 87.9023C91.6348 94.6562 96.0781 99.4043 102.121 99.4297C108.215 99.4043 112.531 94.6562 112.531 87.9023C112.531 81.25 108.215 76.502 102.121 76.4766C96.0781 76.502 91.6348 81.25 91.6094 87.9023ZM98.7695 87.9023C98.7695 84.7793 100.064 83.1797 102.121 83.2305C104.102 83.1797 105.396 84.7793 105.422 87.9023C105.396 91.127 104.102 92.5742 102.121 92.5742C100.064 92.5742 98.7695 91.127 98.7695 87.9023ZM114.359 107.199H121.977V87.1914H124.211V109.027H131.93V62.0547H124.211V80.793H121.977V62.8672H114.359V107.199Z" stroke="#315E7A" stroke-width="2" mask="url(#path-1-inside-1_16_698)"/>
<path d="M148.586 65.2031C141.223 65.1777 135.789 71.7285 135.84 82.1133C135.789 92.6504 141.223 99.1758 148.586 99.1758C155.873 99.1758 161.256 92.6504 161.281 82.1133C161.256 71.7285 155.873 65.1777 148.586 65.2031ZM143.762 82.1133C143.711 75.6133 145.666 72.541 148.586 72.5664C151.582 72.541 153.461 75.6133 153.512 82.1133C153.461 88.7148 151.582 91.7363 148.586 91.7109C145.666 91.7363 143.711 88.7148 143.762 82.1133ZM165.191 109.027H173.367V92.7266H179.359V86.1758H173.367V79.168H179.359V72.4648H173.367V62.0547H165.191V109.027Z" stroke="#315E7A" stroke-width="2" mask="url(#path-1-inside-1_16_698)"/>
<path d="M28.9453 142.387H12.1367V134.465H28.7422V128.066H4.01172V148.887H12.4414V155.844C8.53125 155.895 4.72266 155.895 1.21875 155.844L2.13281 162.445C10.8418 162.42 21.0742 162.42 31.2305 160.82L30.6211 154.93C27.3965 155.234 24.0195 155.463 20.6172 155.615V148.887H28.9453V142.387ZM33.0078 171.18H41.082V124.055H33.0078V171.18Z" stroke="#315E7A" stroke-width="2" mask="url(#path-1-inside-1_16_698)"/>
<path d="M69.4688 128.016H48.1406V160.008H52.1016C60.5312 160.059 66.168 159.855 72.3125 158.637L71.5 152.137C66.6758 152.975 62.2324 153.305 56.3672 153.381V134.566H69.4688V128.016ZM67.4883 146.398H78V171.18H86.125V124.055H78V139.797H67.4883V146.398Z" stroke="#315E7A" stroke-width="2" mask="url(#path-1-inside-1_16_698)"/>
<path d="M128.426 124.055H120.352V171.18H128.426V147.922H134.773V141.219H128.426V124.055ZM92.8789 134.262H106.691V140.508H92.9297V160.516H96.9922C104.736 160.516 111.338 160.236 118.371 158.941L117.66 152.543C112.049 153.432 106.818 153.736 101.004 153.787V146.805H114.816V127.762H92.8789V134.262Z" stroke="#315E7A" stroke-width="2" mask="url(#path-1-inside-1_16_698)"/>
<path d="M174.129 126.645H140.512V133.043H165.979C165.953 136.801 165.775 141.066 164.785 146.5H135.891V153H152.902V171.078H161.129V153H178.75V146.5H172.961C174.104 140.025 174.104 135.277 174.129 130.91V126.645Z" stroke="#315E7A" stroke-width="2" mask="url(#path-1-inside-1_16_698)"/>
<path d="M223.742 159.297H214.906V148.404C218.232 146.17 220.238 142.895 220.238 138.883C220.238 131.113 212.494 125.959 202.262 125.984C191.928 125.959 184.311 131.113 184.336 138.883C184.311 142.945 186.342 146.246 189.719 148.48V159.297H180.832V165.898H223.742V159.297ZM192.41 138.883C192.385 134.541 196.143 132.307 202.262 132.332C208.254 132.307 212.113 134.541 212.164 138.883C212.113 143.123 208.254 145.51 202.262 145.535C196.143 145.51 192.385 143.123 192.41 138.883ZM197.793 159.297V151.426C199.215 151.654 200.713 151.781 202.262 151.781C203.811 151.781 205.309 151.654 206.73 151.426V159.297H197.793Z" stroke="#315E7A" stroke-width="2" mask="url(#path-1-inside-1_16_698)"/>
</svg>
