<svg width="595" height="53" viewBox="0 0 595 53" fill="none" xmlns="http://www.w3.org/2000/svg">
<path d="M52.1875 12.8594C56.0677 12.9115 58.5417 13.8359 59.6094 15.6328C60.7031 17.4297 60.7031 19.2396 59.6094 21.0625C58.5417 22.8594 55.8724 23.7839 51.6016 23.8359H23.7109V12.8594H52.1875ZM0.273438 1.92188V51.6484H23.7109V35.8281H59.6875C64.0365 35.5417 67.4089 34.9297 69.8047 33.9922C72.2266 33.0286 74.375 31.6354 76.25 29.8125C78.151 27.9635 79.2578 25.6589 79.5703 22.8984C79.8828 20.138 79.9349 17.612 79.7266 15.3203C79.5182 13.0286 78.5677 11.0495 76.875 9.38281C75.2083 7.71615 73.125 6.3099 70.625 5.16406C68.125 4.01823 65.7812 3.30208 63.5938 3.01562C61.4323 2.70312 58.6589 2.33854 55.2734 1.92188H0.273438Z" fill="#315E7A"/>
<path d="M85.8984 1.88281V51.6484H107.148V34.2656H130.859C134.167 34.3438 135.911 35.6328 136.094 38.1328C136.276 40.6068 136.576 43.1328 136.992 45.7109C137.409 48.2891 139.727 50.2682 143.945 51.6484H164.961C163.685 50.5026 163.034 49.1875 163.008 47.7031C164.753 35.6719 159.102 29.4609 146.055 29.0703V28.9141C157.357 27.9766 163.438 23.5755 164.297 15.7109C163.568 7.61198 156.927 3.0026 144.375 1.88281H85.8984ZM135.703 12.5859C139.245 12.5859 141.458 14.4609 142.344 18.2109C141.901 21.5964 139.766 23.2891 135.938 23.2891H107.148V12.5859H135.703Z" fill="#315E7A"/>
<path d="M216.719 0.90625C224.349 0.90625 231.758 2.02604 238.945 4.26562C246.133 6.50521 251.771 9.69531 255.859 13.8359C259.948 17.9766 261.992 22.3125 261.992 26.8438C261.992 31.349 260 35.6589 256.016 39.7734C252.057 43.862 246.471 47.0521 239.258 49.3438C232.07 51.6354 224.557 52.7812 216.719 52.7812C208.932 52.7812 201.445 51.6354 194.258 49.3438C187.07 47.0521 181.484 43.862 177.5 39.7734C173.516 35.6589 171.523 31.349 171.523 26.8438C171.523 22.3125 173.542 17.9766 177.578 13.8359C181.641 9.69531 187.279 6.50521 194.492 4.26562C201.706 2.02604 209.115 0.90625 216.719 0.90625ZM217.305 13.6406C213.711 13.6406 210.234 14.2396 206.875 15.4375C203.516 16.6094 200.885 18.263 198.984 20.3984C197.083 22.5339 196.133 24.7865 196.133 27.1562C196.133 29.5 197.057 31.7396 198.906 33.875C200.781 35.9844 203.411 37.638 206.797 38.8359C210.182 40.0339 213.685 40.6328 217.305 40.6328C220.924 40.6328 224.427 40.0339 227.812 38.8359C231.198 37.638 233.815 35.9844 235.664 33.875C237.513 31.7396 238.438 29.5 238.438 27.1562C238.438 24.7865 237.474 22.5339 235.547 20.3984C233.646 18.263 231.016 16.6094 227.656 15.4375C224.297 14.2396 220.846 13.6406 217.305 13.6406Z" fill="#315E7A"/>
<path d="M292.578 33.5625C292.396 37.3646 296.081 39.2656 303.633 39.2656C309.362 39.2656 313.242 38.5104 315.273 37C317.305 35.4635 318.32 33.276 318.32 30.4375V1.92188H342.344V30.2422C342.344 33.9141 341.549 37.1042 339.961 39.8125C338.372 42.4948 336.042 44.7214 332.969 46.4922C329.922 48.237 326.172 49.5391 321.719 50.3984C317.292 51.2318 312.201 51.6484 306.445 51.6484C300.482 51.6484 295.13 51.2448 290.391 50.4375C285.677 49.6302 281.68 48.4193 278.398 46.8047C275.117 45.1641 272.604 43.1068 270.859 40.6328C269.141 38.1589 268.138 35.8021 267.852 33.5625H292.578Z" fill="#315E7A"/>
<path d="M348.242 1.92188V51.6484H415.508V39.1875L369.727 39.2266V31.4531L410.391 31.5312V21.0625H369.727V13.6406H415.508V1.92188H348.242Z" fill="#315E7A"/>
<path d="M421.367 27.625C422.591 44.0312 437.344 52.2344 465.625 52.2344C491.615 52.2344 506.536 45.0078 510.391 30.5547H487.891C486.615 34.1745 483.763 36.8047 479.336 38.4453C474.935 40.0599 470.365 40.8672 465.625 40.8672C461.094 40.8672 456.641 39.8385 452.266 37.7812C447.917 35.724 445.729 32.2865 445.703 27.4688C446.12 22.1042 448.411 18.4583 452.578 16.5312C456.745 14.6042 461.094 13.6406 465.625 13.6406C470.365 13.6406 474.935 14.2786 479.336 15.5547C483.763 16.8047 486.341 18.9792 487.07 22.0781H510.508C506.263 8.14583 491.302 1.17969 465.625 1.17969C437.344 1.17969 422.591 9.99479 421.367 27.625Z" fill="#315E7A"/>
<path d="M516.367 1.92188H594.727V16.7266H566.953V51.6484H543.398V16.7266H516.367V1.92188Z" fill="#315E7A"/>
</svg>
