<svg width="398" height="106" viewBox="0 0 398 106" fill="none" xmlns="http://www.w3.org/2000/svg">
<path fill-rule="evenodd" clip-rule="evenodd" d="M386.879 0L378.566 0.183105L379.848 8.53271L371.315 4.46777L368.349 13.0005L378.566 14.9048L371.975 22.998L378.566 27.4658L383.693 18.3472L388.381 26.2573L395.632 23.877L389.003 15.1245L397.536 13.0005L394.57 4.6875L386.257 8.53271L386.879 0ZM160.085 19.5557C163.698 23.2151 165.609 27.0371 165.816 31.022C165.828 31.2642 165.834 31.5071 165.834 31.7505C165.834 35.9741 163.967 40.0146 160.231 43.8721C156.521 47.7051 151.284 50.6958 144.521 52.8442C137.783 54.9927 130.739 56.0669 123.391 56.0669C116.091 56.0669 109.072 54.9927 102.333 52.8442C95.5952 50.6958 90.3584 47.7051 86.623 43.8721C82.8877 40.0146 81.02 35.9741 81.02 31.7505C81.02 31.6079 81.0222 31.4653 81.0264 31.323L81.03 31.2153L81.0339 31.1223L81.0386 31.022C81.2429 27.0371 83.1289 23.2151 86.6963 19.5557C90.5049 15.6738 95.7903 12.6831 102.553 10.5835C109.316 8.48389 116.262 7.43408 123.391 7.43408C130.544 7.43408 137.49 8.48389 144.228 10.5835C150.966 12.6831 156.252 15.6738 160.085 19.5557ZM143.687 31.022C143.451 29.1721 142.57 27.4009 141.042 25.708C139.26 23.7061 136.794 22.1558 133.645 21.0571C130.495 19.9341 127.26 19.3726 123.94 19.3726C120.571 19.3726 117.312 19.9341 114.162 21.0571C111.013 22.1558 108.547 23.7061 106.765 25.708C105.258 27.4009 104.388 29.1721 104.155 31.022C104.113 31.3599 104.091 31.7004 104.091 32.0435C104.091 34.2407 104.958 36.3403 106.691 38.3423C108.449 40.3198 110.915 41.8701 114.089 42.9932C117.263 44.1162 120.546 44.6777 123.94 44.6777C127.333 44.6777 130.617 44.1162 133.791 42.9932C136.965 41.8701 139.418 40.3198 141.152 38.3423C142.885 36.3403 143.752 34.2407 143.752 32.0435C143.752 31.9255 143.75 31.8079 143.744 31.6904C143.74 31.5903 143.734 31.4905 143.725 31.3909C143.715 31.2676 143.702 31.1445 143.687 31.022ZM74.3506 31.022C74.5513 30.5249 74.7153 30.0068 74.8428 29.4678C74.8845 29.2913 74.9221 29.1125 74.9561 28.9316C75.0098 28.644 75.0535 28.3508 75.0874 28.0518C75.3804 25.4639 75.4292 23.0957 75.2339 20.9473C75.0386 18.7988 74.1475 16.9434 72.5605 15.3809C70.998 13.8184 69.0449 12.5 66.7012 11.4258C64.3574 10.3516 62.1602 9.68018 60.1094 9.41162L59.832 9.37183L59.447 9.31689C59.1309 9.27222 58.802 9.22656 58.4607 9.17993C56.7302 8.94263 54.6797 8.67798 52.3091 8.38623H0.746582V31.022V55.0049H22.7192V40.1733H56.4473C60.5244 39.9048 63.686 39.3311 65.9321 38.4521C68.2026 37.5488 70.2168 36.2427 71.9746 34.5337C73.0254 33.5117 73.8174 32.3411 74.3506 31.022ZM56.374 21.2402C55.373 19.5557 53.0537 18.689 49.416 18.6401H22.7192V28.9307H48.8667C52.8706 28.8818 55.373 28.0151 56.374 26.3306C57.3994 24.6216 57.3994 22.9248 56.374 21.2402ZM171.328 31.022V8.34961H226.149C237.917 9.39941 244.143 13.7207 244.826 21.3135C244.347 25.6978 242.137 28.9341 238.196 31.022C235.51 32.4453 232.019 33.3352 227.724 33.6914V33.8379C239.956 34.2041 245.253 40.0269 243.618 51.3062C243.642 52.6978 244.252 53.9307 245.449 55.0049H225.747C221.792 53.7109 219.619 51.8555 219.228 49.4385C218.837 47.0215 218.557 44.6533 218.386 42.334C218.215 39.9902 216.579 38.7817 213.479 38.7085H191.25V55.0049H171.328V31.022ZM224.245 23.6572C223.415 20.1416 221.34 18.3838 218.02 18.3838H191.25V28.418H218.239C221.828 28.418 223.83 26.8311 224.245 23.6572ZM276.943 22.2656V31.022L276.943 55.0049H299.025L299.025 31.022V22.2656H325.063V8.38623H251.601V22.2656H276.943ZM330.556 31.022V23.8403H362.856V31.022V38.8916H330.556V31.022ZM0.746582 57.3862H66.2983V67.8965H22.7559V77.7109H59.9629V89.2466H22.7559V104.005H0.746582V57.3862ZM114.162 56.4341C121.315 56.4341 128.261 57.4839 135 59.5835C141.738 61.6831 147.023 64.6738 150.856 68.5557C154.689 72.4375 156.606 76.5024 156.606 80.7505C156.606 84.9741 154.738 89.0146 151.003 92.8721C147.292 96.7051 142.055 99.6958 135.292 101.844C128.554 103.993 121.511 105.067 114.162 105.067C106.862 105.067 99.8433 103.993 93.105 101.844C86.3667 99.6958 81.1299 96.7051 77.3945 92.8721C73.6592 89.0146 71.7915 84.9741 71.7915 80.7505C71.7915 76.5024 73.6836 72.4375 77.4678 68.5557C81.2764 64.6738 86.562 61.6831 93.3247 59.5835C100.087 57.4839 107.033 56.4341 114.162 56.4341ZM114.711 68.3726C111.342 68.3726 108.083 68.9341 104.934 70.0571C101.784 71.1558 99.3184 72.7061 97.5361 74.708C95.7539 76.71 94.8628 78.8218 94.8628 81.0435C94.8628 83.2407 95.7295 85.3403 97.4629 87.3423C99.2207 89.3198 101.687 90.8701 104.86 91.9932C108.034 93.1162 111.318 93.6777 114.711 93.6777C118.105 93.6777 121.389 93.1162 124.562 91.9932C127.736 90.8701 130.19 89.3198 131.923 87.3423C133.657 85.3403 134.523 83.2407 134.523 81.0435C134.523 78.8218 133.62 76.71 131.813 74.708C130.031 72.7061 127.565 71.1558 124.416 70.0571C121.267 68.9341 118.032 68.3726 114.711 68.3726ZM162.099 104.005H219.411V90.4551H184.987V57.3862H162.099V104.005ZM224.941 57.3862V104.005H246.694V57.3862H224.941ZM294.558 56.4341C301.711 56.4341 308.657 57.4839 315.395 59.5835C322.133 61.6831 327.419 64.6738 331.252 68.5557C335.085 72.4375 337.001 76.5024 337.001 80.7505C337.001 84.9741 335.134 89.0146 331.398 92.8721C327.688 96.7051 322.451 99.6958 315.688 101.844C308.95 103.993 301.906 105.067 294.558 105.067C287.258 105.067 280.239 103.993 273.5 101.844C266.762 99.6958 261.525 96.7051 257.79 92.8721C254.055 89.0146 252.187 84.9741 252.187 80.7505C252.187 76.5024 254.079 72.4375 257.863 68.5557C261.672 64.6738 266.958 61.6831 273.72 59.5835C280.483 57.4839 287.429 56.4341 294.558 56.4341ZM295.107 68.3726C291.738 68.3726 288.479 68.9341 285.329 70.0571C282.18 71.1558 279.714 72.7061 277.932 74.708C276.149 76.71 275.258 78.8218 275.258 81.0435C275.258 83.2407 276.125 85.3403 277.858 87.3423C279.616 89.3198 282.082 90.8701 285.256 91.9932C288.43 93.1162 291.713 93.6777 295.107 93.6777C298.5 93.6777 301.784 93.1162 304.958 91.9932C308.132 90.8701 310.585 89.3198 312.319 87.3423C314.052 85.3403 314.919 83.2407 314.919 81.0435C314.919 78.8218 314.016 76.71 312.209 74.708C310.427 72.7061 307.961 71.1558 304.812 70.0571C301.662 68.9341 298.427 68.3726 295.107 68.3726Z" fill="white"/>
</svg>
