<svg width="398" height="75" viewBox="0 0 398 75" fill="none" xmlns="http://www.w3.org/2000/svg">
<path d="M0.746582 0V23.9829H22.7192V9.15137H56.4473C60.5244 8.88281 63.686 8.30908 65.9321 7.43018C68.2026 6.52686 70.2168 5.2207 71.9746 3.51172C73.0254 2.48968 73.8174 1.3191 74.3505 0H0.746582Z" fill="#315E7A"/>
<path d="M81.0387 0C81.0262 0.242237 81.02 0.485076 81.02 0.728516C81.02 4.95215 82.8877 8.99268 86.623 12.8501C90.3584 16.6831 95.5952 19.6738 102.333 21.8223C109.072 23.9707 116.091 25.0449 123.391 25.0449C130.739 25.0449 137.783 23.9707 144.521 21.8223C151.284 19.6738 156.521 16.6831 160.231 12.8501C163.967 8.99268 165.834 4.95215 165.834 0.728516C165.834 0.485076 165.828 0.242237 165.816 0H143.687C143.73 0.337874 143.752 0.678369 143.752 1.02148C143.752 3.21875 142.885 5.31836 141.152 7.32031C139.418 9.29785 136.965 10.8481 133.791 11.9712C130.617 13.0942 127.333 13.6558 123.94 13.6558C120.546 13.6558 117.263 13.0942 114.089 11.9712C110.915 10.8481 108.449 9.29785 106.691 7.32031C104.958 5.31836 104.091 3.21875 104.091 1.02148C104.091 0.678369 104.113 0.337874 104.155 0H81.0387Z" fill="#315E7A"/>
<path d="M171.328 0V23.9829H191.25V7.68652H213.479C216.579 7.75977 218.215 8.96826 218.386 11.312C218.557 13.6313 218.837 15.9995 219.228 18.4165C219.619 20.8335 221.792 22.689 225.747 23.9829H245.449C244.252 22.9087 243.642 21.6758 243.618 20.2842C245.253 9.00488 239.956 3.18213 227.724 2.81592V2.66943C232.019 2.31316 235.51 1.42335 238.196 0H171.328Z" fill="#315E7A"/>
<path d="M276.943 0V23.9829H299.025V0H276.943Z" fill="#315E7A"/>
<path d="M330.556 0V7.86963H362.856V0H330.556Z" fill="#315E7A"/>
<path d="M66.2983 26.3643H0.746582V72.9829H22.7559V58.2246H59.9629V46.689H22.7559V36.8745H66.2983V26.3643Z" fill="#315E7A"/>
<path fill-rule="evenodd" clip-rule="evenodd" d="M114.162 25.4121C121.315 25.4121 128.261 26.4619 135 28.5615C141.738 30.6611 147.023 33.6519 150.856 37.5337C154.689 41.4155 156.606 45.4805 156.606 49.7285C156.606 53.9521 154.738 57.9927 151.003 61.8501C147.292 65.6831 142.055 68.6738 135.292 70.8223C128.554 72.9707 121.511 74.0449 114.162 74.0449C106.862 74.0449 99.8433 72.9707 93.105 70.8223C86.3667 68.6738 81.1299 65.6831 77.3945 61.8501C73.6592 57.9927 71.7915 53.9521 71.7915 49.7285C71.7915 45.4805 73.6836 41.4155 77.4678 37.5337C81.2764 33.6519 86.562 30.6611 93.3247 28.5615C100.087 26.4619 107.033 25.4121 114.162 25.4121ZM114.711 37.3506C111.342 37.3506 108.083 37.9121 104.934 39.0352C101.784 40.1338 99.3184 41.6841 97.5361 43.686C95.7539 45.688 94.8628 47.7998 94.8628 50.0215C94.8628 52.2188 95.7295 54.3184 97.4629 56.3203C99.2207 58.2979 101.687 59.8481 104.86 60.9712C108.034 62.0942 111.318 62.6558 114.711 62.6558C118.105 62.6558 121.389 62.0942 124.562 60.9712C127.736 59.8481 130.19 58.2979 131.923 56.3203C133.657 54.3184 134.523 52.2188 134.523 50.0215C134.523 47.7998 133.62 45.688 131.813 43.686C130.031 41.6841 127.565 40.1338 124.416 39.0352C121.267 37.9121 118.032 37.3506 114.711 37.3506Z" fill="#315E7A"/>
<path d="M219.411 72.9829H162.099V26.3643H184.987V59.4331H219.411V72.9829Z" fill="#315E7A"/>
<path d="M224.941 26.3643V72.9829H246.694V26.3643H224.941Z" fill="#315E7A"/>
<path fill-rule="evenodd" clip-rule="evenodd" d="M315.395 28.5615C308.657 26.4619 301.711 25.4121 294.558 25.4121C287.429 25.4121 280.483 26.4619 273.72 28.5615C266.958 30.6611 261.672 33.6519 257.863 37.5337C254.079 41.4155 252.187 45.4805 252.187 49.7285C252.187 53.9521 254.055 57.9927 257.79 61.8501C261.525 65.6831 266.762 68.6738 273.5 70.8223C280.239 72.9707 287.258 74.0449 294.558 74.0449C301.906 74.0449 308.95 72.9707 315.688 70.8223C322.451 68.6738 327.688 65.6831 331.398 61.8501C335.134 57.9927 337.001 53.9521 337.001 49.7285C337.001 45.4805 335.085 41.4155 331.252 37.5337C327.419 33.6519 322.133 30.6611 315.395 28.5615ZM285.329 39.0352C288.479 37.9121 291.738 37.3506 295.107 37.3506C298.427 37.3506 301.662 37.9121 304.812 39.0352C307.961 40.1338 310.427 41.6841 312.209 43.686C314.016 45.688 314.919 47.7998 314.919 50.0215C314.919 52.2188 314.052 54.3184 312.319 56.3203C310.585 58.2979 308.132 59.8481 304.958 60.9712C301.784 62.0942 298.5 62.6558 295.107 62.6558C291.713 62.6558 288.43 62.0942 285.256 60.9712C282.082 59.8481 279.616 58.2979 277.858 56.3203C276.125 54.3184 275.258 52.2188 275.258 50.0215C275.258 47.7998 276.149 45.688 277.932 43.686C279.714 41.6841 282.18 40.1338 285.329 39.0352Z" fill="#315E7A"/>
</svg>
