<svg width="208" height="71" viewBox="0 0 208 71" fill="none" xmlns="http://www.w3.org/2000/svg">
<path d="M35.6719 8.28125H28.125V32.2812H35.6719V23.2344H41.0625V17.0938H35.6719V8.28125ZM0.234375 27.6406L3.1875 33.6406C16.3359 30.2422 23.3203 22.4844 23.3438 10.6719H2.48438V16.5781H15.0469C14.0156 21.3828 9.30469 25.5547 0.234375 27.6406ZM6.75 51.1719H35.6719V33.6875H6.75V51.1719ZM14.2031 45.3594V39.6875H28.2656V45.3594H14.2031ZM59.3438 16.9531V11.375H51.75V16.9531C51.7734 25.0859 49.3125 33.3594 41.3438 36.875L45.8906 42.9688C50.6484 40.7188 53.7188 36.7578 55.5469 31.8359C57.2344 36.3828 60.0469 40.0625 64.4531 42.1719L68.9531 36.1719C61.4766 32.6094 59.2969 24.8047 59.3438 16.9531ZM69.5156 51.6406H77.0625V30.7812H82.9219V24.4531H77.0625V8.28125H69.5156V51.6406ZM118.641 8.28125H111.094V33.8281H118.641V24.5469H124.031V18.3594H118.641V8.28125ZM83.9062 17.5156H109.547V11.7031H100.5V8.09375H92.9531V11.7031H83.9062V17.5156ZM85.7812 25.9531C85.7578 30.5703 90.2812 33.6641 96.7031 33.6406C103.055 33.6641 107.531 30.5703 107.531 25.9531C107.531 21.3359 103.055 18.2422 96.7031 18.2188C90.2812 18.2422 85.7578 21.3359 85.7812 25.9531ZM89.6719 51.2656H118.641V35.3281H111.094V37.8125H97.125V35.3281H89.6719V51.2656ZM93.1406 25.9531C93.1172 24.4062 94.5469 23.6562 96.7031 23.7031C98.9062 23.6562 100.383 24.4062 100.406 25.9531C100.383 27.5938 98.9062 28.25 96.7031 28.2031C94.5469 28.25 93.1172 27.5938 93.1406 25.9531ZM97.125 45.4062V43.4844H111.094V45.4062H97.125ZM162.328 8.28125H154.828V51.6406H162.328V8.28125ZM127.453 41.2812H131.484C137.977 41.2812 145.359 40.8359 152.906 39.2656L151.969 33.125C146.18 34.1797 140.297 34.7188 134.906 34.8594V12.3594H127.453V41.2812ZM201.516 8.28125H193.969V51.7812H201.516V29.8438H207.375V23.75H201.516V8.28125ZM168.562 41.4688H172.312C179.602 41.4922 185.648 41.3516 192.328 40.25L191.531 34.0625C186.305 34.9062 181.43 35.2344 176.016 35.3047V18.2188H188.906V12.1719H168.562V41.4688Z" fill="#F5F5F5"/>
<path d="M35.6719 8.28125H36.6719V7.28125H35.6719V8.28125ZM28.125 8.28125V7.28125H27.125V8.28125H28.125ZM28.125 32.2812H27.125V33.2812H28.125V32.2812ZM35.6719 32.2812V33.2812H36.6719V32.2812H35.6719ZM35.6719 23.2344V22.2344H34.6719V23.2344H35.6719ZM41.0625 23.2344V24.2344H42.0625V23.2344H41.0625ZM41.0625 17.0938H42.0625V16.0938H41.0625V17.0938ZM35.6719 17.0938H34.6719V18.0938H35.6719V17.0938ZM0.234375 27.6406L0.0102512 26.6661L-1.22054 26.9491L-0.662838 28.0822L0.234375 27.6406ZM3.1875 33.6406L2.29029 34.0822L2.64971 34.8125L3.43774 34.6088L3.1875 33.6406ZM23.3438 10.6719L24.3437 10.6739L24.3457 9.67188H23.3438V10.6719ZM2.48438 10.6719V9.67188H1.48438V10.6719H2.48438ZM2.48438 16.5781H1.48438V17.5781H2.48438V16.5781ZM15.0469 16.5781L16.0246 16.788L16.2843 15.5781H15.0469V16.5781ZM6.75 51.1719H5.75V52.1719H6.75V51.1719ZM35.6719 51.1719V52.1719H36.6719V51.1719H35.6719ZM35.6719 33.6875H36.6719V32.6875H35.6719V33.6875ZM6.75 33.6875V32.6875H5.75V33.6875H6.75ZM14.2031 45.3594H13.2031V46.3594H14.2031V45.3594ZM14.2031 39.6875V38.6875H13.2031V39.6875H14.2031ZM28.2656 39.6875H29.2656V38.6875H28.2656V39.6875ZM28.2656 45.3594V46.3594H29.2656V45.3594H28.2656ZM35.6719 7.28125H28.125V9.28125H35.6719V7.28125ZM27.125 8.28125V32.2812H29.125V8.28125H27.125ZM28.125 33.2812H35.6719V31.2812H28.125V33.2812ZM36.6719 32.2812V23.2344H34.6719V32.2812H36.6719ZM35.6719 24.2344H41.0625V22.2344H35.6719V24.2344ZM42.0625 23.2344V17.0938H40.0625V23.2344H42.0625ZM41.0625 16.0938H35.6719V18.0938H41.0625V16.0938ZM36.6719 17.0938V8.28125H34.6719V17.0938H36.6719ZM-0.662838 28.0822L2.29029 34.0822L4.08471 33.199L1.13159 27.199L-0.662838 28.0822ZM3.43774 34.6088C10.1424 32.8759 15.375 30.0061 18.937 25.9735C22.5114 21.9269 24.3316 16.7898 24.3437 10.6739L22.3438 10.6699C22.3324 16.3665 20.6488 21.0145 17.438 24.6495C14.2148 28.2986 9.38103 31.0069 2.93726 32.6724L3.43774 34.6088ZM23.3438 9.67188H2.48438V11.6719H23.3438V9.67188ZM1.48438 10.6719V16.5781H3.48438V10.6719H1.48438ZM2.48438 17.5781H15.0469V15.5781H2.48438V17.5781ZM14.0691 16.3683C13.158 20.6135 8.92246 24.6165 0.0102512 26.6661L0.458499 28.6152C9.68692 26.4929 14.8733 22.1522 16.0246 16.788L14.0691 16.3683ZM6.75 52.1719H35.6719V50.1719H6.75V52.1719ZM36.6719 51.1719V33.6875H34.6719V51.1719H36.6719ZM35.6719 32.6875H6.75V34.6875H35.6719V32.6875ZM5.75 33.6875V51.1719H7.75V33.6875H5.75ZM15.2031 45.3594V39.6875H13.2031V45.3594H15.2031ZM14.2031 40.6875H28.2656V38.6875H14.2031V40.6875ZM27.2656 39.6875V45.3594H29.2656V39.6875H27.2656ZM28.2656 44.3594H14.2031V46.3594H28.2656V44.3594ZM59.3438 16.9531L60.3438 16.9591V16.9531H59.3438ZM59.3438 11.375H60.3438V10.375H59.3438V11.375ZM51.75 11.375V10.375H50.75V11.375H51.75ZM51.75 16.9531H50.75L50.75 16.956L51.75 16.9531ZM41.3438 36.875L40.9401 35.9601L39.7915 36.4668L40.5423 37.473L41.3438 36.875ZM45.8906 42.9688L45.0891 43.5668L45.5785 44.2226L46.3181 43.8728L45.8906 42.9688ZM55.5469 31.8359L56.4844 31.488L55.5472 28.9629L54.6095 31.4878L55.5469 31.8359ZM64.4531 42.1719L64.0213 43.0738L64.7611 43.428L65.2531 42.7719L64.4531 42.1719ZM68.9531 36.1719L69.7531 36.7719L70.4861 35.7946L69.3833 35.2691L68.9531 36.1719ZM69.5156 51.6406H68.5156V52.6406H69.5156V51.6406ZM77.0625 51.6406V52.6406H78.0625V51.6406H77.0625ZM77.0625 30.7812V29.7812H76.0625V30.7812H77.0625ZM82.9219 30.7812V31.7812H83.9219V30.7812H82.9219ZM82.9219 24.4531H83.9219V23.4531H82.9219V24.4531ZM77.0625 24.4531H76.0625V25.4531H77.0625V24.4531ZM77.0625 8.28125H78.0625V7.28125H77.0625V8.28125ZM69.5156 8.28125V7.28125H68.5156V8.28125H69.5156ZM60.3438 16.9531V11.375H58.3438V16.9531H60.3438ZM59.3438 10.375H51.75V12.375H59.3438V10.375ZM50.75 11.375V16.9531H52.75V11.375H50.75ZM50.75 16.956C50.7731 24.9533 48.3548 32.6889 40.9401 35.9601L41.7474 37.7899C50.2702 34.0298 52.7738 25.2186 52.75 16.9502L50.75 16.956ZM40.5423 37.473L45.0891 43.5668L46.6921 42.3707L42.1452 36.277L40.5423 37.473ZM46.3181 43.8728C51.3636 41.4867 54.5873 37.2914 56.4843 32.1841L54.6095 31.4878C52.8502 36.2242 49.9333 39.9508 45.4631 42.0647L46.3181 43.8728ZM54.6094 32.1839C56.3642 36.9123 59.3277 40.8269 64.0213 43.0738L64.8849 41.2699C60.7661 39.2981 58.1045 35.8533 56.4844 31.488L54.6094 32.1839ZM65.2531 42.7719L69.7531 36.7719L68.1531 35.5719L63.6531 41.5719L65.2531 42.7719ZM69.3833 35.2691C62.4433 31.9623 60.2976 24.6844 60.3437 16.9591L58.3438 16.9472C58.2961 24.925 60.5098 33.2564 68.523 37.0746L69.3833 35.2691ZM69.5156 52.6406H77.0625V50.6406H69.5156V52.6406ZM78.0625 51.6406V30.7812H76.0625V51.6406H78.0625ZM77.0625 31.7812H82.9219V29.7812H77.0625V31.7812ZM83.9219 30.7812V24.4531H81.9219V30.7812H83.9219ZM82.9219 23.4531H77.0625V25.4531H82.9219V23.4531ZM78.0625 24.4531V8.28125H76.0625V24.4531H78.0625ZM77.0625 7.28125H69.5156V9.28125H77.0625V7.28125ZM68.5156 8.28125V51.6406H70.5156V8.28125H68.5156ZM118.641 8.28125H119.641V7.28125H118.641V8.28125ZM111.094 8.28125V7.28125H110.094V8.28125H111.094ZM111.094 33.8281H110.094V34.8281H111.094V33.8281ZM118.641 33.8281V34.8281H119.641V33.8281H118.641ZM118.641 24.5469V23.5469H117.641V24.5469H118.641ZM124.031 24.5469V25.5469H125.031V24.5469H124.031ZM124.031 18.3594H125.031V17.3594H124.031V18.3594ZM118.641 18.3594H117.641V19.3594H118.641V18.3594ZM83.9062 17.5156H82.9062V18.5156H83.9062V17.5156ZM109.547 17.5156V18.5156H110.547V17.5156H109.547ZM109.547 11.7031H110.547V10.7031H109.547V11.7031ZM100.5 11.7031H99.5V12.7031H100.5V11.7031ZM100.5 8.09375H101.5V7.09375H100.5V8.09375ZM92.9531 8.09375V7.09375H91.9531V8.09375H92.9531ZM92.9531 11.7031V12.7031H93.9531V11.7031H92.9531ZM83.9062 11.7031V10.7031H82.9062V11.7031H83.9062ZM85.7812 25.9531L86.7813 25.9582L86.7812 25.948L85.7812 25.9531ZM96.7031 33.6406L96.7068 32.6406L96.6995 32.6406L96.7031 33.6406ZM96.7031 18.2188L96.7068 17.2187L96.6995 17.2188L96.7031 18.2188ZM89.6719 51.2656H88.6719V52.2656H89.6719V51.2656ZM118.641 51.2656V52.2656H119.641V51.2656H118.641ZM118.641 35.3281H119.641V34.3281H118.641V35.3281ZM111.094 35.3281V34.3281H110.094V35.3281H111.094ZM111.094 37.8125V38.8125H112.094V37.8125H111.094ZM97.125 37.8125H96.125V38.8125H97.125V37.8125ZM97.125 35.3281H98.125V34.3281H97.125V35.3281ZM89.6719 35.3281V34.3281H88.6719V35.3281H89.6719ZM93.1406 25.9531L94.1405 25.9674L94.1407 25.9527L94.1405 25.938L93.1406 25.9531ZM96.7031 23.7031L96.6814 24.7029L96.7029 24.7034L96.7244 24.7029L96.7031 23.7031ZM100.406 25.9531L101.406 25.9674L101.406 25.9527L101.406 25.938L100.406 25.9531ZM96.7031 28.2031L96.7244 27.2034L96.7029 27.2029L96.6814 27.2034L96.7031 28.2031ZM97.125 45.4062H96.125V46.4062H97.125V45.4062ZM97.125 43.4844V42.4844H96.125V43.4844H97.125ZM111.094 43.4844H112.094V42.4844H111.094V43.4844ZM111.094 45.4062V46.4062H112.094V45.4062H111.094ZM118.641 7.28125H111.094V9.28125H118.641V7.28125ZM110.094 8.28125V33.8281H112.094V8.28125H110.094ZM111.094 34.8281H118.641V32.8281H111.094V34.8281ZM119.641 33.8281V24.5469H117.641V33.8281H119.641ZM118.641 25.5469H124.031V23.5469H118.641V25.5469ZM125.031 24.5469V18.3594H123.031V24.5469H125.031ZM124.031 17.3594H118.641V19.3594H124.031V17.3594ZM119.641 18.3594V8.28125H117.641V18.3594H119.641ZM83.9062 18.5156H109.547V16.5156H83.9062V18.5156ZM110.547 17.5156V11.7031H108.547V17.5156H110.547ZM109.547 10.7031H100.5V12.7031H109.547V10.7031ZM101.5 11.7031V8.09375H99.5V11.7031H101.5ZM100.5 7.09375H92.9531V9.09375H100.5V7.09375ZM91.9531 8.09375V11.7031H93.9531V8.09375H91.9531ZM92.9531 10.7031H83.9062V12.7031H92.9531V10.7031ZM82.9062 11.7031V17.5156H84.9062V11.7031H82.9062ZM84.7813 25.948C84.7677 28.627 86.0889 30.8466 88.2528 32.3571C90.394 33.8517 93.3473 34.6529 96.7068 34.6406L96.6995 32.6406C93.6371 32.6518 91.1177 31.9178 89.3976 30.7171C87.7002 29.5323 86.7714 27.8965 86.7812 25.9582L84.7813 25.948ZM96.6994 34.6406C100.026 34.6529 102.951 33.8507 105.075 32.3546C107.221 30.843 108.531 28.6255 108.531 25.9531H106.531C106.531 27.8979 105.603 29.5359 103.923 30.7196C102.221 31.9189 99.7317 32.6518 96.7068 32.6406L96.6994 34.6406ZM108.531 25.9531C108.531 23.2805 107.221 21.0639 105.077 19.5469C102.955 18.0457 100.032 17.231 96.7068 17.2188L96.6994 19.2187C99.7262 19.2299 102.217 19.9739 103.921 21.1796C105.604 22.3697 106.531 24.0086 106.531 25.9531H108.531ZM96.6995 17.2188C93.3418 17.231 90.3906 18.0446 88.2512 19.5445C86.089 21.0603 84.7677 23.279 84.7813 25.9582L86.7812 25.948C86.7714 24.01 87.7001 22.3733 89.3992 21.1821C91.1211 19.9749 93.6425 19.2299 96.7068 19.2187L96.6995 17.2188ZM89.6719 52.2656H118.641V50.2656H89.6719V52.2656ZM119.641 51.2656V35.3281H117.641V51.2656H119.641ZM118.641 34.3281H111.094V36.3281H118.641V34.3281ZM110.094 35.3281V37.8125H112.094V35.3281H110.094ZM111.094 36.8125H97.125V38.8125H111.094V36.8125ZM98.125 37.8125V35.3281H96.125V37.8125H98.125ZM97.125 34.3281H89.6719V36.3281H97.125V34.3281ZM88.6719 35.3281V51.2656H90.6719V35.3281H88.6719ZM94.1405 25.938C94.1345 25.5404 94.2839 25.2893 94.6196 25.0876C95.0167 24.849 95.6983 24.6815 96.6814 24.7029L96.7249 22.7034C95.5517 22.6779 94.4403 22.862 93.5894 23.3733C92.677 23.9216 92.1233 24.8189 92.1407 25.9683L94.1405 25.938ZM96.7244 24.7029C97.732 24.6815 98.4446 24.8489 98.8709 25.0958C99.241 25.3102 99.4004 25.576 99.4064 25.9683L101.406 25.938C101.389 24.7834 100.798 23.9008 99.8733 23.3651C99.0046 22.862 97.8774 22.6779 96.6819 22.7034L96.7244 24.7029ZM99.4063 25.9388C99.3999 26.3924 99.2283 26.645 98.8827 26.8388C98.4621 27.0749 97.7518 27.2252 96.7244 27.2034L96.6819 29.2029C97.8575 29.2279 98.9871 29.0736 99.8614 28.583C100.811 28.0503 101.389 27.1544 101.406 25.9674L99.4063 25.9388ZM96.6814 27.2034C95.6778 27.2252 94.9988 27.0745 94.6076 26.8467C94.2971 26.6659 94.1339 26.4283 94.1405 25.9674L92.1407 25.9388C92.1239 27.1185 92.6639 28.0294 93.6014 28.5752C94.4582 29.074 95.5722 29.2279 96.7249 29.2029L96.6814 27.2034ZM98.125 45.4062V43.4844H96.125V45.4062H98.125ZM97.125 44.4844H111.094V42.4844H97.125V44.4844ZM110.094 43.4844V45.4062H112.094V43.4844H110.094ZM111.094 44.4062H97.125V46.4062H111.094V44.4062ZM162.328 8.28125H163.328V7.28125H162.328V8.28125ZM154.828 8.28125V7.28125H153.828V8.28125H154.828ZM154.828 51.6406H153.828V52.6406H154.828V51.6406ZM162.328 51.6406V52.6406H163.328V51.6406H162.328ZM127.453 41.2812H126.453V42.2812H127.453V41.2812ZM152.906 39.2656L153.11 40.2447L154.038 40.0516L153.895 39.1147L152.906 39.2656ZM151.969 33.125L152.957 32.9741L152.802 31.9567L151.79 32.1412L151.969 33.125ZM134.906 34.8594H133.906V35.8858L134.932 35.859L134.906 34.8594ZM134.906 12.3594H135.906V11.3594H134.906V12.3594ZM127.453 12.3594V11.3594H126.453V12.3594H127.453ZM162.328 7.28125H154.828V9.28125H162.328V7.28125ZM153.828 8.28125V51.6406H155.828V8.28125H153.828ZM154.828 52.6406H162.328V50.6406H154.828V52.6406ZM163.328 51.6406V8.28125H161.328V51.6406H163.328ZM127.453 42.2812H131.484V40.2812H127.453V42.2812ZM131.484 42.2812C138.02 42.2812 145.475 41.8332 153.11 40.2447L152.703 38.2866C145.244 39.8386 137.933 40.2812 131.484 40.2812V42.2812ZM153.895 39.1147L152.957 32.9741L150.98 33.2759L151.918 39.4165L153.895 39.1147ZM151.79 32.1412C146.057 33.1856 140.225 33.7203 134.88 33.8597L134.932 35.859C140.368 35.7172 146.303 35.1737 152.148 34.1088L151.79 32.1412ZM135.906 34.8594V12.3594H133.906V34.8594H135.906ZM134.906 11.3594H127.453V13.3594H134.906V11.3594ZM126.453 12.3594V41.2812H128.453V12.3594H126.453ZM201.516 8.28125H202.516V7.28125H201.516V8.28125ZM193.969 8.28125V7.28125H192.969V8.28125H193.969ZM193.969 51.7812H192.969V52.7812H193.969V51.7812ZM201.516 51.7812V52.7812H202.516V51.7812H201.516ZM201.516 29.8438V28.8438H200.516V29.8438H201.516ZM207.375 29.8438V30.8438H208.375V29.8438H207.375ZM207.375 23.75H208.375V22.75H207.375V23.75ZM201.516 23.75H200.516V24.75H201.516V23.75ZM168.562 41.4688H167.562V42.4688H168.562V41.4688ZM172.312 41.4688L172.316 40.4688H172.312V41.4688ZM192.328 40.25L192.491 41.2367L193.443 41.0796L193.32 40.1223L192.328 40.25ZM191.531 34.0625L192.523 33.9348L192.391 32.9107L191.372 33.0753L191.531 34.0625ZM176.016 35.3047H175.016V36.3178L176.029 36.3046L176.016 35.3047ZM176.016 18.2188V17.2188H175.016V18.2188H176.016ZM188.906 18.2188V19.2188H189.906V18.2188H188.906ZM188.906 12.1719H189.906V11.1719H188.906V12.1719ZM168.562 12.1719V11.1719H167.562V12.1719H168.562ZM201.516 7.28125H193.969V9.28125H201.516V7.28125ZM192.969 8.28125V51.7812H194.969V8.28125H192.969ZM193.969 52.7812H201.516V50.7812H193.969V52.7812ZM202.516 51.7812V29.8438H200.516V51.7812H202.516ZM201.516 30.8438H207.375V28.8438H201.516V30.8438ZM208.375 29.8438V23.75H206.375V29.8438H208.375ZM207.375 22.75H201.516V24.75H207.375V22.75ZM202.516 23.75V8.28125H200.516V23.75H202.516ZM168.562 42.4688H172.312V40.4688H168.562V42.4688ZM172.309 42.4687C179.61 42.4922 185.726 42.3524 192.491 41.2367L192.165 39.2633C185.571 40.3508 179.593 40.4922 172.316 40.4688L172.309 42.4687ZM193.32 40.1223L192.523 33.9348L190.539 34.1902L191.336 40.3777L193.32 40.1223ZM191.372 33.0753C186.206 33.9093 181.381 34.2349 176.003 34.3048L176.029 36.3046C181.478 36.2338 186.404 35.9032 191.691 35.0497L191.372 33.0753ZM177.016 35.3047V18.2188H175.016V35.3047H177.016ZM176.016 19.2188H188.906V17.2188H176.016V19.2188ZM189.906 18.2188V12.1719H187.906V18.2188H189.906ZM188.906 11.1719H168.562V13.1719H188.906V11.1719ZM167.562 12.1719V41.4688H169.562V12.1719H167.562Z" fill="#315E7A"/>
<path d="M206.5 70.628L184.131 70.628L184.131 65.2056L192.059 65.2056L192.059 52.4149L198.784 52.4149L198.784 65.2056L206.5 65.2056L206.5 70.628Z" fill="#315E7A"/>
<path d="M166.49 70.628L166.49 64.3042L176.102 64.3042L176.102 70.628L182.458 70.628L182.458 52.4149L176.102 52.4149L176.102 59.6401L166.49 59.6115L166.49 52.4149L160.134 52.4149L160.134 70.628L166.49 70.628Z" fill="#315E7A"/>
<path d="M149.284 59.311L143.497 59.311L146.43 65.9066L149.284 59.311ZM150.756 70.628L142.214 70.628L134.465 52.4149L140.598 52.4149L142.003 55.677L150.857 55.677L152.262 52.4149L158.461 52.4149L150.756 70.628Z" fill="#315E7A"/>
<path d="M132.792 70.628L132.792 52.4149L127.35 52.4149L127.35 63.7748L117.771 52.4149L109.787 52.4149L109.787 70.628L115.151 70.628L115.151 59.6258L125.075 70.628L132.792 70.628Z" fill="#315E7A"/>
<path d="M95.2688 70.628L101.625 64.2899L101.625 70.628L108.104 70.628L108.104 52.4149L101.625 52.4149L101.625 59.5542L95.2688 52.4149L87.9649 52.4149L95.9044 61.5572L88.3886 70.628L95.2688 70.628Z" fill="#315E7A"/>
<path d="M59.7528 58.5813L59.7528 52.4149L66.5661 52.4149L66.5661 58.5813L72.911 70.628L66.488 70.628L62.7859 63.4744L59.2287 70.628L53.3187 70.628L59.7528 58.5813Z" fill="#315E7A"/>
<path d="M38.7332 71C36.555 71 34.44 70.5898 32.3883 69.7696C30.3365 68.9493 28.727 67.7809 27.5599 66.2643C26.3927 64.7477 25.8092 63.1596 25.8092 61.5C25.8092 59.8499 26.3779 58.2713 27.5153 56.7643C28.6452 55.2668 30.2398 54.0984 32.2991 53.259C34.3508 52.4197 36.4956 52 38.7332 52C40.956 52 43.0932 52.4197 45.145 53.259C47.1968 54.0984 48.7914 55.2668 49.9288 56.7643C51.0662 58.2713 51.6349 59.8499 51.6349 61.5C51.6349 63.1596 51.0588 64.7477 49.9065 66.2643C48.7468 67.7809 47.1373 68.9493 45.0781 69.7696C43.0189 70.5898 40.9039 71 38.7332 71ZM38.5659 66.3358C39.5918 66.3358 40.5843 66.1165 41.5432 65.6777C42.5022 65.2485 43.2531 64.6428 43.7957 63.8607C44.3384 63.0786 44.6098 62.2535 44.6098 61.3855C44.6098 60.5271 44.3459 59.7068 43.8181 58.9247C43.2828 58.1521 42.532 57.5464 41.5656 57.1077C40.5991 56.6689 39.5993 56.4495 38.5659 56.4495C37.5326 56.4495 36.5327 56.6689 35.5663 57.1077C34.5999 57.5464 33.8528 58.1521 33.325 58.9247C32.7971 59.7068 32.5332 60.5271 32.5332 61.3855C32.5332 62.2535 32.8083 63.0786 33.3584 63.8607C33.9011 64.6428 34.6519 65.2485 35.6109 65.6777C36.5699 66.1165 37.5549 66.3358 38.5659 66.3358Z" fill="#315E7A"/>
<path d="M24.1365 70.628L17.9923 70.628L17.9923 60.2266C17.9923 58.052 16.4349 56.9598 13.3201 56.9503C10.7776 56.9598 9.19791 57.246 8.58089 57.8087C7.95642 58.3715 7.6442 59.1775 7.6442 60.2266L7.6442 70.628L1.5 70.628L1.5 60.2839C1.5 58.939 1.74161 57.7658 2.22481 56.7643C2.70802 55.7628 3.41797 54.9377 4.35466 54.2892C5.29134 53.6501 6.4399 53.1732 7.80031 52.8584C9.15331 52.5437 10.7107 52.3863 12.4726 52.3863C14.2939 52.3863 15.9294 52.5341 17.379 52.8298C18.8212 53.135 20.0441 53.5881 21.0477 54.189C22.0513 54.7899 22.817 55.5482 23.3448 56.4639C23.8726 57.3795 24.1365 58.4621 24.1365 59.7116L24.1365 70.628Z" fill="#315E7A"/>
</svg>
