<svg width="430" height="92" viewBox="0 0 430 92" fill="none" xmlns="http://www.w3.org/2000/svg">
<path d="M215.72 0H154.34V19.1836H173.465V3.53906H194.805C197.781 3.60938 199.352 4.76953 199.516 7.01953C199.68 9.24609 199.949 11.5195 200.324 13.8398C200.699 16.1602 202.785 17.9414 206.582 19.1836H225.496C224.348 18.1523 223.762 16.9688 223.738 15.6328C224.936 7.37613 222.263 2.16519 215.72 0Z" fill="#315E7A"/>
<path d="M368.793 0H424.727V1.07812L388.129 1.00781V8.00391L429.332 7.96875V19.1836H368.793V0Z" fill="#315E7A"/>
<path d="M308.465 0H330.438V6.17578H363.484V19.1836H308.465V0Z" fill="#315E7A"/>
<path d="M231.402 0H299.281C297.714 1.41266 295.948 2.51031 293.98 3.29297C291.824 4.13672 288.789 4.6875 284.875 4.94531H252.496V19.1836H231.402V0Z" fill="#315E7A"/>
<path d="M0.636719 0H68.5151C66.9488 1.41266 65.1821 2.51031 63.2148 3.29297C61.0586 4.13672 58.0234 4.6875 54.1094 4.94531H21.7305V19.1836H0.636719V0Z" fill="#315E7A"/>
<path d="M77.6992 0H97.0703C97.0775 5.33595 101.988 8.01564 111.801 8.03906C119.816 8.01562 124.797 7.3125 126.742 5.92969C128.708 4.54897 129.692 2.57241 129.695 0H149.066C149.043 3.24102 148.281 6.07305 146.781 8.49609C145.258 10.957 143.02 12.9844 140.066 14.5781C137.113 16.1484 133.492 17.3203 129.203 18.0938C124.938 18.8672 120.027 19.2539 114.473 19.2539C108.73 19.2539 103.574 18.8906 99.0039 18.1641C94.457 17.4141 90.6016 16.3008 87.4375 14.8242C84.2734 13.3477 81.8594 11.4844 80.1953 9.23438C78.5312 6.98438 77.6992 4.32422 77.6992 1.25391V0Z" fill="#315E7A"/>
<path d="M0.636719 91.1836V46.4297H24.9648L56.2539 73.4648V46.4297H73.1641V91.1836H47.9922L17.793 63.2695V91.1836H0.636719Z" fill="#315E7A"/>
<path fill-rule="evenodd" clip-rule="evenodd" d="M102.766 46.4297H129.695L154.129 91.1836H134.793L130.363 83.168H102.449L98.0195 91.1836H78.4727L102.766 46.4297ZM107.406 74.2383H125.652L116.406 58.0312L107.406 74.2383Z" fill="#315E7A"/>
<path d="M159.402 91.1836V46.4297H180.285V91.1836H159.402Z" fill="#315E7A"/>
<path d="M237.027 91.1836H209.992L185.559 46.4297H204.895L223.527 78.8086L242.055 46.4297H261.391L237.027 91.1836Z" fill="#315E7A"/>
<path d="M266.699 91.1836V46.4297H327.238V56.9766H286.035V63.6562H322.633V73.0781L286.035 73.0078V80.0039L327.238 79.9688V91.1836H266.699Z" fill="#315E7A"/>
</svg>
