<svg width="430" height="26" viewBox="0 0 430 26" fill="none" xmlns="http://www.w3.org/2000/svg">
<path fill-rule="evenodd" clip-rule="evenodd" d="M68.5151 26H0.636719V0.429688H50.1367C53.1836 0.804688 55.6797 1.13281 57.625 1.41406C59.5938 1.67188 61.7031 2.31641 63.9531 3.34766C66.2031 4.37891 68.0781 5.64453 69.5781 7.14453C71.1016 8.64453 71.957 10.4258 72.1445 12.4883C72.332 14.5508 72.2852 16.8242 72.0039 19.3086C71.7227 21.793 70.7266 23.8672 69.0156 25.5312C68.8511 25.6912 68.6843 25.8474 68.5151 26ZM47.3594 10.2734C50.8516 10.3203 53.0781 11.1523 54.0391 12.7695C55.0234 14.3867 55.0234 16.0156 54.0391 17.6562C53.0781 19.2734 50.6758 20.1055 46.832 20.1523H21.7305V10.2734H47.3594Z" fill="#222222"/>
<path fill-rule="evenodd" clip-rule="evenodd" d="M215.72 26H154.34V0.394531H206.969C218.266 1.40234 224.242 5.55078 224.898 12.8398C224.125 19.918 218.652 23.8789 208.48 24.7227V24.8633C211.269 24.9468 213.682 25.3257 215.72 26ZM205.141 15.0898C204.344 11.7148 202.352 10.0273 199.164 10.0273H173.465V19.6602H199.375C202.82 19.6602 204.742 18.1367 205.141 15.0898Z" fill="#222222"/>
<path fill-rule="evenodd" clip-rule="evenodd" d="M299.281 26H231.402V0.429688H280.902C283.949 0.804688 286.445 1.13281 288.391 1.41406C290.359 1.67188 292.469 2.31641 294.719 3.34766C296.969 4.37891 298.844 5.64453 300.344 7.14453C301.867 8.64453 302.723 10.4258 302.91 12.4883C303.098 14.5508 303.051 16.8242 302.77 19.3086C302.488 21.793 301.492 23.8672 299.781 25.5312C299.617 25.6912 299.45 25.8474 299.281 26ZM278.125 10.2734C281.617 10.3203 283.844 11.1523 284.805 12.7695C285.789 14.3867 285.789 16.0156 284.805 17.6562C283.844 19.2734 281.441 20.1055 277.598 20.1523H252.496V10.2734H278.125Z" fill="#222222"/>
<path d="M330.438 26H308.465V0.429688H330.438V26Z" fill="#222222"/>
<path d="M424.727 26H368.793V0.429688H429.332V10.9766H388.129V17.6562H424.727V26Z" fill="#222222"/>
<path d="M149.066 26H129.695C129.695 25.9961 129.695 25.9922 129.695 25.9883V0.429688H149.066V25.8477C149.066 25.8985 149.066 25.9493 149.066 26Z" fill="#222222"/>
<path d="M97.0703 26H77.6992V0.429688H97.0703V25.9883C97.0703 25.9922 97.0703 25.9961 97.0703 26Z" fill="#222222"/>
</svg>
