<svg width="187" height="83" viewBox="0 0 187 83" fill="none" xmlns="http://www.w3.org/2000/svg">
<path d="M31.7734 19.0703H0.640625V20.6719H31.7734V19.0703ZM4.3125 8.64062C4.29297 12.8398 8.86328 15.3203 16.1875 15.3203C23.4727 15.3203 28.043 12.8398 28.0625 8.64062C28.043 4.42188 23.4727 1.98047 16.1875 1.96094C8.86328 1.98047 4.29297 4.42188 4.3125 8.64062ZM4.82031 34.0312H28.375V32.4297H6.73438V24.1484H4.82031V34.0312ZM6.1875 8.64062C6.1875 5.57422 10.2109 3.5625 16.1875 3.5625C22.1836 3.5625 26.168 5.57422 26.1875 8.64062C26.168 11.7461 22.1836 13.7188 16.1875 13.7188C10.2109 13.7188 6.1875 11.7461 6.1875 8.64062Z" fill="#6286A4"/>
<path d="M62.8281 0.710938H60.9531V34.9297H62.8281V0.710938ZM35.4062 25.9062L35.7578 27.5859C42.2812 27.6055 50.8164 27.4688 58.6094 26.2578L58.4531 24.8516C50.875 25.7695 42.125 25.8672 35.4062 25.9062ZM36.1875 7.27344H57.2812V5.67188H47.7109V1.0625H45.8359V5.67188H36.1875V7.27344ZM38.7266 15.9062C38.7266 19.7734 41.9688 22.3125 46.7344 22.3125C51.5195 22.3125 54.7812 19.7734 54.7812 15.9062C54.7812 12.0195 51.5195 9.53906 46.7344 9.53906C41.9688 9.53906 38.7266 12.0195 38.7266 15.9062ZM40.4844 15.9062C40.4453 13.1328 43.043 11.082 46.7344 11.1016C50.4453 11.082 53.0234 13.1328 53.0234 15.9062C53.0234 18.6992 50.4453 20.75 46.7344 20.75C43.043 20.75 40.4453 18.6992 40.4844 15.9062Z" fill="#6286A4"/>
<path d="M81.0312 3.36719C75.6602 3.36719 71.9297 6.47266 71.9688 11.1406C71.9297 15.8086 75.6602 18.9336 81.0312 18.9531C86.3633 18.9336 90.0547 15.8086 90.0547 11.1406C90.0547 6.47266 86.3633 3.36719 81.0312 3.36719ZM69.9766 25.3203L70.3281 27.0391C76.5977 27.0586 85.2109 27.0391 93.2188 25.5547L93.0234 24.1484C85.3086 25.3398 76.4414 25.3594 69.9766 25.3203ZM73.7656 11.1406C73.7461 7.625 76.7734 5.02734 81.0312 5.00781C85.2305 5.02734 88.2383 7.625 88.2578 11.1406C88.2383 14.6562 85.2305 17.2734 81.0312 17.2734C76.7734 17.2734 73.7461 14.6562 73.7656 11.1406ZM95.5234 34.9688H97.3984V0.710938H95.5234V34.9688Z" fill="#6286A4"/>
<path d="M31.9688 76.7188H17.0469V67.7344H28.6875V66.1719H22.8672V53.9453H28.7266V52.3047H3.60938V53.9453H9.46875V66.1719H3.60938V67.7344H15.25V76.7188H0.640625V78.3594H31.9688V76.7188ZM11.3047 66.1719V53.9453H21.0312V66.1719H11.3047Z" fill="#6286A4"/>
<path d="M62.75 67.6953H41.3438V61.25H61.6172V59.6094H41.3438V53.5938H62.3594V51.9531H39.4688V69.3359H62.75V67.6953ZM35.2109 78.1641H66.5391V76.4844H35.2109V78.1641Z" fill="#6286A4"/>
<path d="M82.1641 66.9531H70.7969V68.8281H82.1641V66.9531Z" fill="#6286A4"/>
<path d="M114.508 49.6875H89.4688V51.25H95.2891V59.2969H89.5078V60.8203H101.109V64.9609H86.4609V66.5234H117.594V64.9609H102.945V60.8203H114.469V59.2969H108.727V51.25H114.508V49.6875ZM90.3672 71.3672H111.656V75.0391H90.4844V82.4219H114.586V80.8594H92.2812V76.5625H113.453V69.8438H90.3672V71.3672ZM97.125 59.2969V51.25H106.852V59.2969H97.125Z" fill="#6286A4"/>
<path d="M149 48.7109H147.164V82.9688H149V48.7109ZM123.023 53.7109H136.852V61.9531H123.102V74.4531H125.836C131.5 74.4727 136.773 74.1992 143.492 73.1641L143.297 71.5625C136.676 72.5977 131.383 72.832 125.836 72.8125H124.977V63.5938H138.727V52.0703H123.023V53.7109Z" fill="#6286A4"/>
<path d="M171.148 51.2891C163.961 51.2891 158.863 54.707 158.883 59.9219C158.863 64.9609 163.531 68.2617 170.211 68.5352V76.6016H155.602V78.2422H186.93V76.6016H172.086V68.5352C178.785 68.2617 183.414 64.9609 183.414 59.9219C183.414 54.707 178.355 51.2891 171.148 51.2891ZM160.602 59.9219C160.602 55.7812 165.133 52.8711 171.148 52.8516C177.164 52.8711 181.695 55.7812 181.695 59.9219C181.695 64.1016 177.164 67.0312 171.148 67.0312C165.133 67.0312 160.602 64.1016 160.602 59.9219Z" fill="#6286A4"/>
</svg>
