<svg width="398" height="32" viewBox="0 0 398 32" fill="none" xmlns="http://www.w3.org/2000/svg">
<path fill-rule="evenodd" clip-rule="evenodd" d="M74.3505 32H0.746582V9.36426H52.3091C55.4829 9.75488 58.083 10.0967 60.1094 10.3896C62.1602 10.6582 64.3574 11.3296 66.7012 12.4038C69.0449 13.478 70.998 14.7964 72.5605 16.3589C74.1475 17.9214 75.0386 19.7769 75.2339 21.9253C75.4292 24.0737 75.3804 26.4419 75.0874 29.0298C74.9672 30.0918 74.7215 31.0819 74.3505 32ZM49.416 19.6182C53.0537 19.667 55.373 20.5337 56.374 22.2183C57.3994 23.9028 57.3994 25.5996 56.374 27.3086C55.373 28.9932 52.8706 29.8599 48.8667 29.9087H22.7192V19.6182H49.416Z" fill="#222222"/>
<path d="M165.816 32C165.609 28.0152 163.698 24.1931 160.085 20.5337C156.252 16.6519 150.966 13.6611 144.228 11.5615C137.49 9.46191 130.544 8.41211 123.391 8.41211C116.262 8.41211 109.316 9.46191 102.553 11.5615C95.7905 13.6611 90.5049 16.6519 86.6963 20.5337C83.129 24.1931 81.2431 28.0152 81.0387 32H104.155C104.388 30.1501 105.258 28.3788 106.765 26.686C108.547 24.6841 111.013 23.1338 114.162 22.0352C117.312 20.9121 120.571 20.3506 123.94 20.3506C127.26 20.3506 130.495 20.9121 133.645 22.0352C136.794 23.1338 139.26 24.6841 141.042 26.686C142.57 28.3788 143.451 30.1501 143.687 32H165.816Z" fill="#222222"/>
<path fill-rule="evenodd" clip-rule="evenodd" d="M238.196 32H171.328V9.32764H226.149C237.917 10.3774 244.143 14.6987 244.826 22.2915C244.347 26.6758 242.137 29.912 238.196 32ZM224.245 24.6353C223.415 21.1196 221.34 19.3618 218.02 19.3618H191.25V29.396H218.239C221.828 29.396 223.83 27.8091 224.245 24.6353Z" fill="#222222"/>
<path d="M299.025 32H276.943V23.2437H251.601V9.36426H325.063V23.2437H299.025V32Z" fill="#222222"/>
<path d="M362.856 32H330.556V24.8184H362.856V32Z" fill="#222222"/>
<path d="M378.566 1.16113L386.879 0.978027L386.257 9.51074L394.57 5.66553L397.536 13.9785L389.003 16.1025L395.632 24.855L388.381 27.2354L383.693 19.3252L378.566 28.4438L371.975 23.9761L378.566 15.8828L368.349 13.9785L371.315 5.4458L379.848 9.51074L378.566 1.16113Z" fill="#222222"/>
</svg>
